<?xml version="1.0" standalone="no"?>
<!DOCTYPE svg PUBLIC "-//W3C//DTD SVG 20010904//EN"
 "http://www.w3.org/TR/2001/REC-SVG-20010904/DTD/svg10.dtd">
<svg version="1.0" xmlns="http://www.w3.org/2000/svg"
 width="920.000000pt" height="760.000000pt" viewBox="0 0 920.000000 760.000000"
 preserveAspectRatio="xMidYMid meet">
<metadata>
Created by potrace 1.15, written by Peter Selinger 2001-2017
</metadata>
<g transform="translate(0.000000,760.000000) scale(0.100000,-0.100000)" stroke="none">
<path d="M4254 6896 c-69 -13 -140 -40 -339 -128 -179 -80 -289 -142 -390
-220 -66 -51 -303 -303 -369 -393 -115 -154 -139 -200 -176 -350 -24 -94 -90
-246 -141 -326 -29 -46 -31 -47 -132 -74 -149 -40 -227 -67 -367 -128 -182
-79 -465 -183 -538 -197 -107 -21 -214 -9 -323 37 -150 64 -159 66 -322 64
-139 -1 -155 -3 -208 -27 -32 -15 -57 -30 -54 -34 2 -4 36 -10 74 -14 147 -13
326 -88 492 -207 240 -170 371 -194 618 -110 167 57 230 71 311 71 70 0 110
-11 110 -30 0 -6 -36 -10 -82 -10 -89 0 -147 -13 -246 -54 -35 -15 -118 -36
-185 -47 -140 -24 -167 -38 -118 -64 18 -9 79 -47 136 -85 57 -37 121 -74 141
-80 63 -21 129 -6 219 48 90 55 140 82 152 82 5 0 15 -16 22 -35 7 -19 28 -47
47 -62 57 -43 68 -74 66 -187 -2 -122 4 -134 108 -246 44 -47 80 -88 80 -91 0
-4 -16 -29 -35 -55 -89 -126 -95 -137 -95 -182 0 -52 10 -73 61 -129 l39 -43
0 -91 c0 -86 1 -92 28 -119 20 -20 44 -31 77 -36 50 -7 61 -15 122 -92 39 -48
88 -62 222 -62 115 0 142 17 191 116 36 74 56 104 70 104 5 0 19 -19 33 -43
14 -23 56 -78 94 -122 133 -154 207 -269 269 -416 54 -128 114 -179 211 -179
52 0 93 19 123 57 50 64 143 154 178 172 44 22 155 46 261 56 l74 7 -7 52
c-18 154 -224 377 -347 376 -82 -1 -164 -66 -212 -167 -16 -35 -32 -63 -36
-63 -12 0 -91 128 -126 203 -25 55 -115 375 -115 411 0 3 14 6 30 6 40 0 99
55 186 171 36 49 68 89 71 89 16 0 -12 -69 -38 -96 l-31 -32 64 -34 c34 -19
110 -61 168 -95 111 -65 218 -113 247 -113 45 1 48 15 19 80 -15 34 -26 64
-23 66 10 11 97 -100 113 -144 9 -26 46 -120 81 -209 53 -134 66 -179 74 -255
17 -157 38 -256 74 -346 20 -47 40 -115 46 -149 6 -35 21 -78 33 -96 41 -62
149 -94 223 -66 41 15 69 45 108 115 26 46 58 82 131 143 53 44 100 81 104 81
10 0 140 -274 198 -421 107 -266 148 -336 214 -370 67 -34 112 -29 220 24 83
40 103 46 182 51 49 4 98 9 110 12 21 5 22 0 34 -110 15 -140 74 -431 96 -474
21 -41 85 -77 170 -97 38 -9 90 -27 115 -39 80 -41 148 -56 254 -56 54 0 97 3
95 8 -40 78 -59 128 -67 177 -10 66 -89 266 -117 296 -21 23 -62 24 -155 3
-39 -9 -72 -14 -75 -11 -2 2 -13 30 -24 61 -30 83 -34 157 -16 275 20 130 19
188 -2 271 -16 61 -20 66 -62 88 -40 21 -56 23 -151 20 -104 -3 -107 -4 -164
-42 l-58 -38 7 56 c3 31 19 98 35 149 47 146 46 163 -11 177 -71 18 -126 40
-140 57 -12 15 -9 15 25 9 21 -4 84 -7 140 -8 131 0 161 12 296 120 58 47 116
89 127 94 18 9 38 -2 133 -75 62 -48 150 -105 197 -128 95 -47 108 -60 179
-194 26 -49 64 -115 85 -145 50 -74 73 -121 127 -259 45 -114 45 -117 37 -191
-12 -113 -7 -205 14 -253 11 -23 45 -71 77 -107 31 -36 64 -79 72 -95 14 -29
13 -33 -20 -88 -41 -68 -52 -113 -37 -165 25 -93 161 -192 265 -192 101 0 129
24 185 156 46 109 39 156 -41 264 -27 36 -67 107 -89 158 l-40 93 12 69 c11
62 10 80 -9 162 -13 57 -24 144 -27 223 -3 84 -12 153 -24 195 -11 36 -36 120
-56 187 -20 68 -49 182 -66 255 -60 271 -61 287 -58 628 3 306 2 317 -21 395
-42 143 -144 371 -253 567 -24 42 -40 79 -37 83 4 3 37 11 74 16 38 6 97 22
133 36 55 20 76 23 131 18 142 -14 233 -36 315 -77 108 -54 138 -78 171 -140
40 -74 41 -152 1 -228 -75 -143 -84 -152 -214 -219 -152 -77 -166 -94 -158
-180 9 -83 26 -122 69 -155 61 -46 187 -85 187 -57 0 5 -7 28 -15 51 -17 48
-20 168 -5 219 12 41 21 49 143 112 105 55 139 88 198 194 31 56 34 68 37 166
5 120 -7 189 -44 269 -49 106 -92 150 -254 259 -226 153 -306 182 -505 182
-149 1 -227 -14 -378 -72 -70 -27 -148 -52 -172 -56 -42 -5 -48 -3 -89 35 -24
22 -79 60 -122 85 -70 41 -84 54 -121 115 -24 38 -51 76 -60 84 -10 9 -63 35
-118 58 -55 22 -165 75 -245 117 -80 42 -192 101 -250 131 -58 30 -118 64
-134 75 -57 40 -369 353 -423 425 -30 40 -89 103 -131 140 -42 37 -110 99
-152 138 -84 79 -118 102 -272 185 -60 32 -139 79 -178 104 -38 25 -130 75
-204 112 l-135 66 -118 3 c-72 2 -146 -2 -189 -10z m453 -92 c81 -42 178 -98
215 -125 36 -27 123 -77 194 -110 111 -54 138 -72 213 -143 47 -45 117 -108
154 -140 38 -32 96 -95 130 -140 96 -127 376 -399 463 -449 116 -67 560 -295
599 -307 77 -24 115 -53 159 -120 53 -79 71 -96 161 -150 39 -23 89 -62 113
-87 41 -44 44 -45 85 -39 23 4 86 27 141 52 128 59 225 83 361 91 86 5 122 2
167 -11 31 -9 72 -16 92 -16 51 0 136 -45 300 -158 188 -130 246 -211 277
-387 18 -106 8 -180 -37 -266 -50 -96 -100 -144 -202 -196 -71 -36 -93 -43
-143 -43 -58 0 -77 11 -41 24 9 4 40 21 69 38 43 26 67 53 129 145 134 199
148 314 50 401 -41 36 -105 70 -279 148 -188 84 -249 90 -452 39 -100 -25
-175 -33 -145 -16 8 5 70 27 138 51 121 41 125 42 220 35 78 -5 93 -4 77 6
-10 7 -51 14 -91 17 -59 4 -98 -2 -223 -33 -146 -35 -155 -36 -224 -25 -157
26 -172 28 -179 23 -16 -9 -6 -22 65 -76 39 -30 111 -96 160 -145 84 -87 91
-96 176 -273 170 -352 183 -410 175 -776 -6 -226 -4 -285 10 -378 23 -143 88
-413 131 -540 53 -160 63 -211 69 -365 7 -168 14 -230 28 -230 5 0 8 -51 6
-123 l-3 -124 67 -132 c65 -127 67 -133 53 -160 -7 -15 -25 -35 -39 -44 -29
-20 -113 -44 -121 -35 -3 3 4 34 15 69 19 56 20 70 10 127 -6 36 -22 93 -36
126 -18 42 -28 92 -34 163 -9 105 -15 124 -58 180 -24 33 -24 34 -17 182 5
107 4 165 -5 203 -15 62 -179 529 -191 542 -5 5 -11 1 -14 -10 -20 -60 -80
-194 -88 -194 -19 0 3 88 51 211 l49 124 -156 164 c-221 232 -282 282 -512
418 -109 65 -199 123 -199 130 0 18 90 255 107 282 l15 23 39 -58 c68 -100
106 -175 144 -284 44 -122 69 -166 119 -203 42 -33 134 -77 159 -77 26 0 21
39 -12 103 -38 72 -47 103 -70 227 -21 120 -129 409 -168 450 l-23 25 0 -60
c0 -73 -12 -63 -34 30 -17 70 -61 175 -75 175 -3 0 -12 -37 -18 -82 -11 -82
-38 -168 -53 -168 -4 0 -10 30 -13 68 -5 65 -45 194 -66 215 -7 7 -14 2 -22
-15 -8 -19 -21 -27 -48 -32 -21 -3 -46 -15 -56 -26 -14 -16 -26 -19 -47 -15
-24 6 -28 3 -28 -14 0 -24 -10 -27 -28 -9 -17 17 -26 1 -42 -73 -7 -32 -18
-63 -24 -67 -23 -19 -146 -45 -177 -38 -49 9 -121 60 -186 130 -63 68 -191
271 -273 436 -42 84 -67 119 -124 176 -72 71 -163 140 -173 131 -8 -9 72 -139
132 -212 120 -146 209 -302 278 -486 l42 -114 -2 -222 c-1 -178 -5 -227 -17
-251 -35 -68 -167 -145 -336 -198 -80 -25 -95 -27 -260 -25 -110 2 -177 6
-181 13 -11 18 2 91 24 138 32 65 99 98 232 111 178 17 318 73 408 161 26 26
47 52 47 58 0 6 -25 -2 -55 -19 -30 -17 -79 -44 -107 -60 -104 -58 -187 -72
-456 -78 l-244 -5 45 -47 c25 -25 50 -56 56 -68 6 -12 11 -73 11 -140 0 -106
-3 -128 -32 -213 -31 -93 -31 -97 -20 -182 6 -48 21 -108 33 -135 12 -26 31
-82 43 -124 12 -42 26 -78 31 -79 6 -2 35 43 65 100 34 65 77 126 116 169 l62
66 34 -31 c18 -17 79 -66 136 -109 96 -72 152 -129 152 -151 0 -9 -131 -85
-157 -92 -8 -2 -13 8 -13 27 0 37 -16 39 -79 11 -53 -25 -73 -25 -70 -2 3 32
-1 32 -51 7 l-51 -26 21 40 c21 43 26 71 11 71 -15 0 -132 -132 -153 -174 -12
-23 -22 -68 -25 -111 -5 -65 -8 -74 -30 -84 -13 -6 -26 -11 -28 -11 -3 0 -2
39 1 88 5 65 2 103 -10 152 -22 85 -65 177 -106 223 l-32 37 11 82 c21 154 9
286 -36 413 -30 84 -38 94 -63 88 -24 -6 -24 -1 -5 63 21 69 19 157 -4 202
-25 48 -53 73 -119 107 -30 14 -52 29 -49 32 3 2 54 11 114 19 59 8 166 30
238 50 124 35 134 36 233 30 107 -7 126 2 54 25 -71 23 -74 26 -57 59 13 25
23 30 65 36 28 4 50 10 50 15 0 18 -45 31 -90 27 -64 -6 -120 -35 -218 -113
-91 -72 -98 -73 -141 -10 -21 32 -33 86 -47 220 -6 64 -8 64 -46 -5 -17 -30
-18 -30 -47 -16 -27 14 -141 124 -141 136 0 3 25 38 55 79 31 40 54 75 51 78
-17 18 -142 -95 -347 -313 -21 -23 -75 -61 -120 -84 -67 -35 -96 -44 -151 -48
-37 -2 -68 -3 -68 -1 0 3 34 33 76 69 131 111 181 183 260 370 10 24 45 76 76
115 32 38 58 73 58 78 0 16 -29 5 -91 -33 -99 -63 -140 -79 -215 -86 -90 -8
-195 9 -272 46 -59 28 -60 28 -128 14 -37 -8 -70 -16 -72 -19 -2 -2 13 -44 34
-92 l39 -88 0 -230 c0 -265 -2 -272 -90 -361 -42 -43 -137 -104 -160 -104 -9
0 -6 63 5 99 13 47 5 50 -19 10 -26 -42 -26 -87 -1 -167 27 -85 25 -108 -10
-178 -37 -71 -125 -173 -138 -159 -25 27 -21 62 11 111 29 44 33 57 38 149 5
87 10 111 43 182 40 88 56 153 38 153 -6 0 -20 -25 -31 -56 -31 -81 -50 -115
-84 -147 l-30 -28 11 -68 c12 -67 7 -104 -18 -151 -10 -19 -17 -21 -47 -15
-28 5 -34 3 -30 -7 45 -107 58 -145 68 -201 15 -82 4 -126 -44 -182 -33 -39
-36 -40 -111 -43 -81 -4 -126 2 -126 18 0 6 20 10 43 10 52 0 65 12 98 90 13
30 38 79 56 109 24 39 33 67 33 98 0 58 -15 54 -35 -9 -10 -29 -20 -56 -24
-59 -3 -4 -41 -10 -84 -13 -71 -6 -78 -5 -75 10 2 11 26 24 68 38 63 20 65 22
68 58 2 27 -3 43 -17 57 -28 28 -47 26 -117 -9 -32 -16 -60 -27 -62 -25 -2 2
6 20 18 39 16 27 33 39 68 49 26 8 46 16 45 18 -1 2 -18 39 -39 82 l-37 78
-17 -50 c-20 -60 -125 -193 -148 -189 -10 2 -28 25 -41 52 -21 41 -25 70 -32
192 -4 79 -11 148 -14 154 -7 12 12 87 24 95 5 3 17 -30 26 -73 23 -102 30
-114 46 -79 10 23 9 44 -5 122 -10 54 -15 110 -12 130 8 42 48 75 90 75 34 0
106 -43 106 -63 -1 -7 -16 -29 -34 -49 -26 -30 -43 -39 -80 -44 -25 -4 -46 -8
-46 -10 0 -2 20 -34 45 -71 25 -37 45 -72 45 -77 0 -24 20 21 20 46 0 25 3 27
30 22 34 -7 35 -6 16 31 -27 51 4 75 100 75 30 0 54 4 54 8 0 5 -11 19 -25 32
-36 33 -31 43 18 37 142 -19 151 -19 183 1 17 11 41 41 53 67 25 53 23 87 -2
38 -41 -77 -94 -94 -142 -43 -21 22 -25 31 -14 35 8 2 32 11 54 18 30 10 47
26 68 59 29 46 33 76 22 143 -6 37 -4 43 33 78 l39 38 13 -30 c15 -37 20 -38
47 -8 27 29 55 87 82 169 13 37 27 70 32 74 5 3 33 8 62 11 42 4 64 0 116 -22
55 -23 80 -27 170 -28 71 -1 113 2 129 11 l22 13 -19 38 c-19 36 -52 170 -45
182 2 3 38 21 81 39 210 88 267 129 312 223 35 74 56 189 47 265 -7 59 -44
155 -56 147 -5 -3 -31 -47 -58 -98 -59 -107 -104 -172 -131 -186 -17 -9 -23
-5 -47 37 l-28 47 -18 -65 c-11 -36 -21 -70 -23 -77 -3 -10 -114 -48 -120 -41
-22 27 -97 175 -105 210 -24 95 22 207 113 279 145 115 151 136 16 61 -50 -28
-99 -54 -109 -57 -12 -4 -28 8 -54 40 -33 40 -96 86 -96 69 0 -3 9 -17 20 -31
30 -39 54 -129 54 -208 -1 -57 -8 -89 -39 -170 -20 -55 -48 -121 -61 -146
l-23 -46 -128 -5 c-71 -3 -140 -11 -154 -18 -29 -13 -52 -57 -70 -132 -9 -36
-16 -48 -30 -48 -11 0 -22 0 -26 -1 -5 -1 -7 13 -5 30 4 40 -6 71 -23 71 -8 0
-37 -22 -65 -50 -48 -47 -55 -50 -102 -50 l-51 0 47 -50 c25 -27 46 -55 46
-62 0 -8 -23 -36 -51 -63 -28 -28 -74 -88 -102 -135 -29 -47 -72 -105 -97
-130 -47 -47 -139 -98 -194 -107 -32 -5 -33 -4 -46 41 -22 81 0 145 98 281 57
80 90 104 202 150 18 7 26 19 28 43 4 38 -1 38 -69 12 -40 -16 -64 -19 -108
-15 -44 5 -74 1 -137 -18 -97 -30 -129 -46 -210 -103 l-61 -43 -46 29 c-58 36
-81 78 -72 131 4 21 16 50 26 63 31 39 132 66 294 78 175 14 225 14 349 3 96
-8 99 -7 92 11 -5 10 -19 48 -31 84 -13 36 -33 89 -44 118 -26 65 -26 95 0
152 25 55 58 91 122 132 26 17 46 32 44 35 -3 2 -26 -2 -52 -8 -34 -9 -68 -29
-117 -72 -38 -32 -72 -56 -76 -52 -4 4 -7 50 -7 103 0 89 3 102 30 151 54 98
153 165 266 181 61 9 93 26 169 90 37 31 29 37 -28 21 -43 -13 -42 2 3 88 46
88 126 170 211 216 38 21 104 60 147 87 167 105 241 126 444 127 l151 1 149
-76z m17 -1049 c1 -71 -3 -88 -32 -147 -41 -85 -115 -152 -232 -213 -123 -63
-154 -69 -405 -72 -121 -1 -256 -4 -300 -5 l-80 -3 4 55 c7 119 18 123 371
125 299 3 309 4 415 65 83 47 127 97 184 210 46 89 55 100 64 84 6 -10 11 -55
11 -99z m-2244 -477 c-23 -52 -25 -100 -5 -193 8 -38 11 -72 7 -76 -4 -4 -41
-14 -82 -23 -41 -9 -136 -34 -210 -56 -321 -96 -403 -107 -505 -72 -28 10 -94
48 -148 85 -80 56 -123 77 -246 122 -82 30 -179 60 -215 66 -36 7 -66 16 -66
20 0 13 129 22 222 16 70 -5 105 -13 175 -42 48 -20 110 -43 138 -51 57 -16
239 -18 303 -4 52 12 480 176 572 218 36 17 68 31 72 31 4 1 -2 -18 -12 -41z
m302 -482 c-4 -90 -3 -95 32 -173 20 -44 36 -86 36 -92 0 -21 -39 -11 -60 17
-37 46 -50 91 -50 170 0 78 27 202 40 182 4 -6 5 -53 2 -104z m942 85 c2 -3 0
-17 -5 -30 -8 -19 -12 -21 -24 -11 -12 10 -29 -2 -100 -66 -81 -74 -152 -169
-186 -249 -21 -49 -39 -65 -77 -65 -18 0 -50 7 -69 17 -32 15 -34 18 -28 52
17 92 75 161 198 237 171 106 273 146 291 115z m-777 -1033 c12 -24 33 -69 47
-100 24 -57 24 -58 5 -68 -16 -9 -27 -5 -59 21 -42 34 -70 70 -70 90 0 18 40
99 49 99 4 0 17 -19 28 -42z"/>
<path d="M3592 5846 c-22 -24 -47 -57 -55 -73 -19 -35 -86 -205 -97 -244 -8
-28 -8 -29 30 -29 21 0 67 9 102 20 34 11 71 20 81 20 27 0 20 21 -20 63 -35
35 -38 42 -37 91 1 29 12 84 24 120 12 37 20 69 17 72 -2 2 -22 -15 -45 -40z"/>
<path d="M5250 5872 c0 -23 40 -132 73 -199 14 -26 62 -120 107 -208 l83 -160
56 -7 c31 -3 77 -16 104 -27 51 -22 55 -18 32 35 -20 48 -44 77 -121 145 -93
82 -176 189 -228 294 -46 92 -58 110 -88 134 -16 12 -18 11 -18 -7z"/>
<path d="M6853 5050 c27 -88 47 -179 52 -245 9 -102 24 -138 64 -155 36 -15
43 -10 60 39 20 60 13 105 -26 182 -34 66 -162 219 -150 179z"/>
<path d="M3889 4713 c-4 -76 -6 -84 -50 -149 -25 -38 -54 -85 -64 -104 -20
-39 -36 -100 -26 -99 3 0 33 34 66 75 33 42 71 88 83 104 36 44 44 97 27 165
-25 95 -32 96 -36 8z"/>
</g>
</svg>
